<?xml version="1.0" encoding="UTF-8" standalone="no"?>
<svg
   xmlns:dc="http://purl.org/dc/elements/1.1/"
   xmlns:cc="http://creativecommons.org/ns#"
   xmlns:rdf="http://www.w3.org/1999/02/22-rdf-syntax-ns#"
   xmlns:svg="http://www.w3.org/2000/svg"
   xmlns="http://www.w3.org/2000/svg"
   xmlns:sodipodi="http://sodipodi.sourceforge.net/DTD/sodipodi-0.dtd"
   xmlns:inkscape="http://www.inkscape.org/namespaces/inkscape"
   inkscape:export-ydpi="500"
   inkscape:export-xdpi="500"
   inkscape:export-filename="/home/xuesoso/GitRepositories/nheatmap/logo.png"
   sodipodi:docname="logo.svg"
   inkscape:version="1.0beta2 (2b71d25, 2019-12-03)"
   id="svg8"
   version="1.1"
   viewBox="0 0 13.375605 12.78721"
   height="12.78721mm"
   width="13.375605mm">
  <defs
     id="defs2">
    <inkscape:perspective
       id="perspective1116"
       inkscape:persp3d-origin="171.66857 : -446.43981 : 1"
       inkscape:vp_z="213.38534 : -17.454107 : 1"
       inkscape:vp_y="-727.79032 : 3955.8607 : 0"
       inkscape:vp_x="57.900552 : -483.79535 : 1"
       sodipodi:type="inkscape:persp3d" />
  </defs>
  <sodipodi:namedview
     fit-margin-bottom="1"
     fit-margin-right="1"
     fit-margin-left="1"
     lock-margins="true"
     fit-margin-top="1"
     inkscape:window-maximized="0"
     inkscape:window-y="26"
     inkscape:window-x="4"
     inkscape:window-height="1022"
     inkscape:window-width="1906"
     showgrid="false"
     inkscape:document-rotation="0"
     inkscape:current-layer="layer1"
     inkscape:document-units="mm"
     inkscape:cy="34.149656"
     inkscape:cx="25.246431"
     inkscape:zoom="15.839192"
     inkscape:pageshadow="2"
     inkscape:pageopacity="0.0"
     borderopacity="1.0"
     bordercolor="#666666"
     pagecolor="#ffffff"
     id="base" />
  <metadata
     id="metadata5">
    <rdf:RDF>
      <cc:Work
         rdf:about="">
        <dc:format>image/svg+xml</dc:format>
        <dc:type
           rdf:resource="http://purl.org/dc/dcmitype/StillImage" />
        <dc:title />
      </cc:Work>
    </rdf:RDF>
  </metadata>
  <g
     transform="translate(-1.2420531,-0.32887912)"
     id="layer1"
     inkscape:groupmode="layer"
     inkscape:label="Layer 1">
    <path
       id="path1711"
       d="m 12.24474,1.3288792 c -0.690186,0 -1.261516,0.5124906 -1.357228,1.1767866 h -0.800214 v 0.7845245 c 0,0.1082643 -0.087671,0.1961311 -0.1961316,0.1961311 -0.1084605,0 -0.1961311,-0.087867 -0.1961311,-0.1961311 V 2.5056658 H 9.3027731 v 1.1767867 c 0,0.1082644 -0.087671,0.1961311 -0.1961311,0.1961311 -0.1084606,0 -0.1961312,-0.087867 -0.1961312,-0.1961311 V 2.5056658 H 4.9721982 C 4.8764862,1.8413698 4.3051562,1.3288792 3.6149709,1.3288792 c -0.75687,0 -1.3729178,0.6158517 -1.3729178,1.3729177 v 8.0413751 c 0,0.757067 0.6160478,1.372918 1.3729178,1.372918 H 5.576282 v -1.176786 c 0,-0.108265 0.087671,-0.196132 0.1961311,-0.196132 0.1084605,0 0.1961311,0.08787 0.1961311,0.196132 v 1.176786 h 0.3922622 v -0.588393 c 0,-0.108264 0.087671,-0.196131 0.1961311,-0.196131 0.1084605,0 0.1961311,0.08787 0.1961311,0.196131 V 12.11609 H 12.24474 c 0.75687,0 1.372917,-0.615851 1.372917,-1.372918 V 2.7017969 c 0,-0.757066 -0.616047,-1.3729177 -1.372917,-1.3729177 z M 4.5956264,9.7831107 C 4.3463438,9.5285325 3.9987995,9.3702547 3.6149709,9.3702547 c -0.3838286,0 -0.7313729,0.1582778 -0.9806556,0.412856 V 2.7017969 c 0,-0.5407334 0.4399221,-0.9806555 0.9806556,-0.9806555 0.5407334,0 0.9806555,0.4399221 0.9806555,0.9806555 z M 5.9110778,5.9785594 5.6337484,5.70123 6.083477,5.2515014 5.6337484,4.8017727 5.9110778,4.5244433 6.3608064,4.974172 6.810535,4.5244433 7.0878644,4.8017727 6.6381358,5.2515014 7.0878644,5.70123 6.810535,5.9785594 6.3608064,5.5288308 Z M 6.434944,6.9109667 c -0.083552,0 -0.1606314,-0.053544 -0.1871091,-0.1372918 -0.055113,-0.1753412 -0.08316,-0.357547 -0.08316,-0.541518 0,-0.1082644 0.087671,-0.1961311 0.1961311,-0.1961311 0.1084605,0 0.1961311,0.087867 0.1961311,0.1961311 0,0.1439602 0.021771,0.2865476 0.065116,0.4238393 0.032558,0.1033611 -0.024909,0.2133907 -0.1282697,0.2459485 -0.019613,0.00608 -0.039422,0.00902 -0.058839,0.00902 z m 0.9681031,0.8918081 c -0.036873,0.061389 -0.101792,0.09532 -0.1682805,0.09532 -0.034323,0 -0.069234,-0.00902 -0.1008114,-0.028047 C 6.9248795,7.7445239 6.7426737,7.5884035 6.5928295,7.4060016 6.5239875,7.3222536 6.5361476,7.198691 6.6198956,7.129849 6.7042316,7.061007 6.8275985,7.073363 6.8958521,7.156915 c 0.1214051,0.1476867 0.269288,0.2743874 0.4399221,0.3767679 0.092966,0.055701 0.1231703,0.1763218 0.067273,0.2690919 z m 1.5888582,0.327539 c -0.026478,0.083748 -0.1035573,0.1372918 -0.1871091,0.1372918 -0.019613,0 -0.039226,-0.00294 -0.058839,-0.00902 C 8.6086651,8.2154347 8.4660777,8.193468 8.3221175,8.193468 c -0.17946,0 -0.3581354,-0.020201 -0.5313192,-0.05982 C 7.6852798,8.1095239 7.6193797,8.0042015 7.6435039,7.898683 c 0.02432,-0.1057147 0.1290542,-0.1723993 0.234965,-0.1472945 0.1443525,0.033146 0.2934122,0.049817 0.4436486,0.049817 0.183971,0 0.3661768,0.028047 0.541518,0.08316 0.1033611,0.032558 0.1608275,0.1425873 0.1282698,0.2459483 z M 9.6238397,8.9723047 C 9.5216554,8.8018667 9.3947586,8.6537877 9.2470718,8.5323826 9.1633238,8.4635406 9.1513598,8.339978 9.2200057,8.25623 9.2888478,8.1728742 9.4122142,8.160518 9.4959622,8.22936 c 0.1827942,0.1502364 0.3389146,0.3322461 0.4640462,0.5411257 0.055702,0.092966 0.025693,0.2133907 -0.067273,0.2690919 -0.031577,0.019025 -0.066488,0.028047 -0.1008114,0.028047 -0.066488,0 -0.1314078,-0.033931 -0.1680843,-0.09532 z m 0.4634583,1.1824743 c -0.108461,0 -0.1961316,-0.08787 -0.1961316,-0.196131 0,-0.1506287 -0.016671,-0.2996883 -0.049817,-0.4434524 -0.02432,-0.1057147 0.04158,-0.210841 0.1472945,-0.2351612 0.1055181,-0.023928 0.2106441,0.04158 0.2349651,0.1470983 0.03962,0.1725954 0.05982,0.3514669 0.05982,0.5315153 0,0.108264 -0.08767,0.196131 -0.196131,0.196131 z m 3.138097,-0.3716683 c -0.249282,-0.2545782 -0.596827,-0.412856 -0.980655,-0.412856 -0.383829,0 -0.731373,0.1582778 -0.980656,0.412856 V 2.7017969 c 0,-0.5407334 0.439922,-0.9806555 0.980656,-0.9806555 0.540733,0 0.980655,0.4399221 0.980655,0.9806555 z"
       inkscape:connector-curvature="0"
       style="stroke-width:0.196131" />
    <g
       id="g1713"
       transform="matrix(0.19613111,0,0,0.19613111,2.2420531,1.0346825)" />
    <g
       id="g1715"
       transform="matrix(0.19613111,0,0,0.19613111,2.2420531,1.0346825)" />
    <g
       id="g1717"
       transform="matrix(0.19613111,0,0,0.19613111,2.2420531,1.0346825)" />
    <g
       id="g1719"
       transform="matrix(0.19613111,0,0,0.19613111,2.2420531,1.0346825)" />
    <g
       id="g1721"
       transform="matrix(0.19613111,0,0,0.19613111,2.2420531,1.0346825)" />
    <g
       id="g1723"
       transform="matrix(0.19613111,0,0,0.19613111,2.2420531,1.0346825)" />
    <g
       id="g1725"
       transform="matrix(0.19613111,0,0,0.19613111,2.2420531,1.0346825)" />
    <g
       id="g1727"
       transform="matrix(0.19613111,0,0,0.19613111,2.2420531,1.0346825)" />
    <g
       id="g1729"
       transform="matrix(0.19613111,0,0,0.19613111,2.2420531,1.0346825)" />
    <g
       id="g1731"
       transform="matrix(0.19613111,0,0,0.19613111,2.2420531,1.0346825)" />
    <g
       id="g1733"
       transform="matrix(0.19613111,0,0,0.19613111,2.2420531,1.0346825)" />
    <g
       id="g1735"
       transform="matrix(0.19613111,0,0,0.19613111,2.2420531,1.0346825)" />
    <g
       id="g1737"
       transform="matrix(0.19613111,0,0,0.19613111,2.2420531,1.0346825)" />
    <g
       id="g1739"
       transform="matrix(0.19613111,0,0,0.19613111,2.2420531,1.0346825)" />
    <g
       id="g1741"
       transform="matrix(0.19613111,0,0,0.19613111,2.2420531,1.0346825)" />
    <g
       transform="matrix(1,0,0,1.0950041,0,-0.39588796)"
       id="g953"
       style="stroke:none">
      <path
         inkscape:connector-curvature="0"
         id="rect1774"
         style="fill:#000000;fill-opacity:1;stroke:none;stroke-width:0.0705556;stroke-linecap:round;stroke-linejoin:round;stroke-miterlimit:4;stroke-dasharray:none;stroke-opacity:1"
         d="m 5.1578125,4.1670624 h 5.5440845 c 0.02352,0 0.04246,0.019259 0.04246,0.043187 v 5.9097816 c 0,0.02392 -0.01893,0.04319 -0.04246,0.04319 H 5.1578125 c -0.023521,0 -0.042461,-0.01926 -0.042461,-0.04319 V 4.2102496 c 0,-0.023929 0.018932,-0.043187 0.042461,-0.043187 z" />
      <path
         inkscape:connector-curvature="0"
         id="path877"
         d="M 5.1170829,7.1651417 H 10.730655"
         style="fill:#000000;fill-opacity:1;stroke:none;stroke-width:0.0705556;stroke-linecap:butt;stroke-linejoin:miter;stroke-miterlimit:4;stroke-dasharray:none;stroke-opacity:1" />
      <path
         inkscape:connector-curvature="0"
         id="path879"
         d="m 7.9298543,4.192912 v 5.964887"
         style="fill:#000000;fill-opacity:1;stroke:none;stroke-width:0.070765;stroke-linecap:butt;stroke-linejoin:miter;stroke-miterlimit:4;stroke-dasharray:none;stroke-opacity:1" />
    </g>
    <g
       id="g1969"
       style="fill:#ef8200;fill-opacity:1"
       transform="matrix(0.01347839,0,0,0.01347839,3.8841781,1.8419527)">
      <path
         id="path1967"
         d="m 216.02,611.195 c 5.978,3.178 12.284,-3.704 8.624,-9.4 -19.866,-30.919 -38.678,-82.947 -8.706,-149.952 49.982,-111.737 80.396,-169.609 80.396,-169.609 0,0 16.177,67.536 60.029,127.585 42.205,57.793 65.306,130.478 28.064,191.029 -3.495,5.683 2.668,12.388 8.607,9.349 46.1,-23.582 97.806,-70.885 103.64,-165.017 2.151,-28.764 -1.075,-69.034 -17.206,-119.851 -20.741,-64.406 -46.239,-94.459 -60.992,-107.365 -4.413,-3.861 -11.276,-0.439 -10.914,5.413 4.299,69.494 -21.845,87.129 -36.726,47.386 -5.943,-15.874 -9.409,-43.33 -9.409,-76.766 0,-55.665 -16.15,-112.967 -51.755,-159.531 -9.259,-12.109 -20.093,-23.424 -32.523,-33.073 -4.5,-3.494 -11.023,0.018 -10.611,5.7 2.734,37.736 0.257,145.885 -94.624,275.089 -86.029,119.851 -52.693,211.896 -40.864,236.826 22.616,47.759 54.162,75.806 84.97,92.187 z"
         inkscape:connector-curvature="0"
         style="fill:#ef8200;fill-opacity:1" />
    </g>
    <g
       id="g1971"
       style="fill:#ef8200;fill-opacity:1"
       transform="matrix(0.0074518,0,0,0.0074518,5.6496085,4.834501)" />
    <g
       id="g1973"
       style="fill:#ef8200;fill-opacity:1"
       transform="matrix(0.0074518,0,0,0.0074518,5.6496085,4.834501)" />
    <g
       id="g1975"
       style="fill:#ef8200;fill-opacity:1"
       transform="matrix(0.0074518,0,0,0.0074518,5.6496085,4.834501)" />
    <g
       id="g1977"
       style="fill:#ef8200;fill-opacity:1"
       transform="matrix(0.0074518,0,0,0.0074518,5.6496085,4.834501)" />
    <g
       id="g1979"
       style="fill:#ef8200;fill-opacity:1"
       transform="matrix(0.0074518,0,0,0.0074518,5.6496085,4.834501)" />
    <g
       id="g1981"
       style="fill:#ef8200;fill-opacity:1"
       transform="matrix(0.0074518,0,0,0.0074518,5.6496085,4.834501)" />
    <g
       id="g1983"
       style="fill:#ef8200;fill-opacity:1"
       transform="matrix(0.0074518,0,0,0.0074518,5.6496085,4.834501)" />
    <g
       id="g1985"
       style="fill:#ef8200;fill-opacity:1"
       transform="matrix(0.0074518,0,0,0.0074518,5.6496085,4.834501)" />
    <g
       id="g1987"
       style="fill:#ef8200;fill-opacity:1"
       transform="matrix(0.0074518,0,0,0.0074518,5.6496085,4.834501)" />
    <g
       id="g1989"
       style="fill:#ef8200;fill-opacity:1"
       transform="matrix(0.0074518,0,0,0.0074518,5.6496085,4.834501)" />
    <g
       id="g1991"
       style="fill:#ef8200;fill-opacity:1"
       transform="matrix(0.0074518,0,0,0.0074518,5.6496085,4.834501)" />
    <g
       id="g1993"
       style="fill:#ef8200;fill-opacity:1"
       transform="matrix(0.0074518,0,0,0.0074518,5.6496085,4.834501)" />
    <g
       id="g1995"
       style="fill:#ef8200;fill-opacity:1"
       transform="matrix(0.0074518,0,0,0.0074518,5.6496085,4.834501)" />
    <g
       id="g1997"
       style="fill:#ef8200;fill-opacity:1"
       transform="matrix(0.0074518,0,0,0.0074518,5.6496085,4.834501)" />
    <g
       id="g1999"
       style="fill:#ef8200;fill-opacity:1"
       transform="matrix(0.0074518,0,0,0.0074518,5.6496085,4.834501)" />
  </g>
</svg>
